<svg id="Filled" height="512" viewBox="0 0 512 512" width="512" xmlns="http://www.w3.org/2000/svg"><path d="m400 192a143.845 143.845 0 1 1 -1.99-24 143.458 143.458 0 0 1 1.99 24z" fill="#3397e8"/><path d="m272 128a40.015 40.015 0 0 1 -40 40h-118.01a143.627 143.627 0 0 1 42.42-80h75.59a40 40 0 0 1 40 40z" fill="#3dc285"/><path d="m400 192a143.458 143.458 0 0 1 -11.3 56h-68.7a40 40 0 0 1 0-80h78.01a144.841 144.841 0 0 1 1.99 24z" fill="#38b37a"/><path d="m248 256a40.015 40.015 0 0 1 -40 40h-51.59a143.627 143.627 0 0 1 -42.42-80h94.01a40 40 0 0 1 40 40z" fill="#3dc285"/><path d="m240 384h32v40h-32z" fill="#dadcde"/><path d="m216 424h80a16 16 0 0 1 16 16v16a0 0 0 0 1 0 0h-112a0 0 0 0 1 0 0v-16a16 16 0 0 1 16-16z" fill="#1261a0"/><path d="m176 456h160v32h-160z" fill="#3397e8"/><path d="m456 190.785c0 111.133-90.082 201.215-201.215 201.215a201.037 201.037 0 0 1 -166.785-88.6l20.779-20.779a172.483 172.483 0 1 0 237.84-237.84l20.781-20.781a201.037 201.037 0 0 1 88.6 166.785z" fill="#1261a0"/><path d="m371.881 17.374a8 8 0 0 0 -10.141.969l-20.779 20.78a8 8 0 0 0 1.392 12.424 167.068 167.068 0 0 1 23.124 17.569l-8.913 8.913c-.628-.554-1.255-1.108-1.893-1.653a152.063 152.063 0 0 0 -248.571 140.948 150.329 150.329 0 0 0 35.919 75.249l-8.9 8.9a166.836 166.836 0 0 1 -17.568-23.123 8 8 0 0 0 -12.426-1.392l-20.782 20.783a8 8 0 0 0 -.969 10.14 209.175 209.175 0 0 0 150.626 90.856v17.263h-16a24.028 24.028 0 0 0 -24 24v8h-16a8 8 0 0 0 -8 8v32a8 8 0 0 0 8 8h160a8 8 0 0 0 8-8v-32a8 8 0 0 0 -8-8h-16v-8a24.028 24.028 0 0 0 -24-24h-16v-17.5a209.256 209.256 0 0 0 91.881-381.126zm-212.17 270.626a134.526 134.526 0 0 1 -35.911-64h84.2a32 32 0 0 1 0 64zm-6.475 15.985a151.954 151.954 0 0 0 254.764-111.985 151.488 151.488 0 0 0 -40.017-102.762l8.814-8.814a163.591 163.591 0 0 1 42.462 110.362c0 90.691-73.782 164.473-164.474 164.473a163.593 163.593 0 0 1 -110.362-42.459zm237.826-127.985a137.811 137.811 0 0 1 .938 16 135.132 135.132 0 0 1 -8.725 48h-63.275a32 32 0 0 1 0-64zm-46.783-87.458a136.252 136.252 0 0 1 43.928 71.458h-68.207a48 48 0 0 0 0 96h56.013a136.032 136.032 0 0 1 -197.178 48h29.165a48 48 0 0 0 0-96h-87.062a137 137 0 0 1 0-32h111.062a48 48 0 0 0 0-96h-53.165a136.029 136.029 0 0 1 165.444 8.542zm-184.568 7.458h72.289a32 32 0 0 1 0 64h-108.2a134.538 134.538 0 0 1 35.911-64zm168.289 384h-144v-16h144zm-24-40v8h-96v-8a8.009 8.009 0 0 1 8-8h80a8.009 8.009 0 0 1 8 8zm-40-24h-16v-16.114q3.384.109 6.785.114c3.083 0 6.154-.078 9.215-.209zm-9.215-32a193.152 193.152 0 0 1 -156.378-79.695l9.14-9.14a179.558 179.558 0 0 0 147.238 76.094c99.514 0 180.474-80.96 180.474-180.473a179.561 179.561 0 0 0 -76.094-147.24l9.14-9.139a193.156 193.156 0 0 1 79.695 156.379c0 106.538-86.676 193.214-193.215 193.214z"/></svg>